<?xml version="1.0" encoding="UTF-8"?>
<svg id="Calque_2" data-name="Calque 2" xmlns="http://www.w3.org/2000/svg" xmlns:xlink="http://www.w3.org/1999/xlink" viewBox="0 0 290.09 169.1">
  <defs>
    <style>
      .cls-1 {
        letter-spacing: 0em;
      }

      .cls-2 {
        font-family: Montserrat-ExtraBold, 'Montserrat ExtraBold';
        font-size: 11.28px;
        font-weight: 700;
      }

      .cls-2, .cls-3 {
        fill: #2a4899;
      }

      .cls-4 {
        filter: url(#drop-shadow-1);
      }

      .cls-5 {
        fill: #fff;
        stroke-width: 4px;
      }

      .cls-5, .cls-6 {
        stroke: #2b4998;
        stroke-linecap: round;
        stroke-linejoin: round;
      }

      .cls-6 {
        fill: #cbd6c7;
        stroke-width: 2px;
      }

      .cls-7 {
        letter-spacing: 0em;
      }

      .cls-8 {
        fill: #1c2e64;
      }
    </style>
    <filter id="drop-shadow-1" filterUnits="userSpaceOnUse">
      <feOffset dx="7" dy="7"/>
      <feGaussianBlur result="blur" stdDeviation="5"/>
      <feFlood flood-color="#000" flood-opacity=".45"/>
      <feComposite in2="blur" operator="in"/>
      <feComposite in="SourceGraphic"/>
    </filter>
  </defs>
  <g id="Calque_1-2" data-name="Calque 1">
    <g class="cls-4">
      <g>
        <rect class="cls-8" x="1.11" y="1" width="287.88" height="160.98"/>
        <path class="cls-6" d="m145.26,1H1v160.98h288.09V1h-143.83Zm140.65,102.12l-4.36,4.33v47.03H8.54v-47.03l-4.36-4.33v-38.79l4.36-4.33V8.5h113.07l4.41-4.38h38.04l4.41,4.38h113.07v51.5l4.36,4.33v38.79Z"/>
        <g>
          <g>
            <polygon class="cls-3" points="165.84 4.22 169.63 8.01 181.69 8.01 177.8 4.12 165.84 4.22"/>
            <polygon class="cls-3" points="179.1 4.22 182.89 8.01 189.27 8.01 185.38 4.12 179.1 4.22"/>
            <polygon class="cls-3" points="186.68 4.22 190.47 8.01 193.46 8.01 189.57 4.12 186.68 4.22"/>
          </g>
          <g>
            <g>
              <polygon class="cls-3" points="285.9 63.26 282.11 59.47 282.11 47.41 286 51.3 285.9 63.26"/>
              <polygon class="cls-3" points="285.9 50 282.11 46.21 282.11 39.83 286 43.72 285.9 50"/>
              <polygon class="cls-3" points="285.9 42.42 282.11 38.63 282.11 35.64 286 39.53 285.9 42.42"/>
            </g>
            <g>
              <polygon class="cls-3" points="285.9 104.41 282.11 108.2 282.11 120.26 286 116.37 285.9 104.41"/>
              <polygon class="cls-3" points="285.9 117.67 282.11 121.46 282.11 127.84 286 123.95 285.9 117.67"/>
              <polygon class="cls-3" points="285.9 125.25 282.11 129.04 282.11 132.03 286 128.14 285.9 125.25"/>
            </g>
          </g>
          <g>
            <g>
              <polygon class="cls-3" points="4.29 105.01 8.08 108.8 8.08 120.86 4.19 116.97 4.29 105.01"/>
              <polygon class="cls-3" points="4.29 118.27 8.08 122.06 8.08 128.44 4.19 124.55 4.29 118.27"/>
              <polygon class="cls-3" points="4.29 125.85 8.08 129.64 8.08 132.63 4.19 128.74 4.29 125.85"/>
            </g>
            <g>
              <polygon class="cls-3" points="3.99 62.96 7.78 59.17 7.78 47.11 3.89 51 3.99 62.96"/>
              <polygon class="cls-3" points="3.99 49.7 7.78 45.91 7.78 39.53 3.89 43.42 3.99 49.7"/>
              <polygon class="cls-3" points="3.99 42.12 7.78 38.33 7.78 35.34 3.89 39.23 3.99 42.12"/>
            </g>
          </g>
          <g>
            <polygon class="cls-3" points="124.64 4.22 120.85 8.01 108.79 8.01 112.68 4.12 124.64 4.22"/>
            <polygon class="cls-3" points="111.38 4.22 107.59 8.01 101.21 8.01 105.1 4.12 111.38 4.22"/>
            <polygon class="cls-3" points="103.8 4.22 100.01 8.01 97.02 8.01 100.91 4.12 103.8 4.22"/>
          </g>
        </g>
      </g>
      <polygon class="cls-5" points="192.78 149.7 175.38 167.1 114.33 167.1 97.31 150.09 192.78 149.7"/>
      <text class="cls-2" transform="translate(129.31 162.5)"><tspan x="0" y="0">P</tspan><tspan class="cls-7" x="6" y="0">R</tspan><tspan class="cls-1" x="12.1" y="0">OFIL</tspan></text>
    </g>
  </g>
</svg>